<?xml version="1.0" standalone="no"?>
<!DOCTYPE svg PUBLIC "-//W3C//DTD SVG 20010904//EN"
 "http://www.w3.org/TR/2001/REC-SVG-20010904/DTD/svg10.dtd">
<svg version="1.0" xmlns="http://www.w3.org/2000/svg"
 width="206.000000pt" height="200.000000pt" viewBox="0 0 206.000000 200.000000"
 preserveAspectRatio="xMidYMid meet">

<g transform="translate(0.000000,200.000000) scale(0.100000,-0.100000)"
fill="#000000" stroke="none">
<path d="M1850 1783 c-63 -36 -137 -78 -165 -93 -27 -16 -70 -40 -94 -53 l-44
-25 39 -11 c21 -5 63 -13 92 -17 28 -4 52 -11 52 -17 0 -35 -365 -543 -551
-767 l-37 -44 -68 48 c-38 26 -112 79 -164 118 l-95 70 -38 -44 c-22 -24 -53
-59 -71 -78 -36 -40 -291 -341 -351 -415 -22 -27 -54 -65 -70 -84 -17 -20 -71
-85 -120 -146 -83 -103 -88 -113 -25 -58 14 12 48 40 75 64 75 63 157 134 397
347 120 105 220 192 223 192 3 0 26 -16 52 -36 27 -20 59 -44 73 -54 14 -10
61 -45 105 -77 44 -32 85 -62 92 -66 21 -13 428 510 606 778 47 72 92 138 99
149 13 17 18 12 73 -60 l60 -79 6 65 c13 125 20 425 11 439 -7 10 -11 10 -17
1 -5 -8 -10 -7 -18 3 -10 13 -29 5 -127 -50z"/>
</g>
</svg>
